<svg width="95" height="33" viewBox="0 0 95 33" fill="none" xmlns="http://www.w3.org/2000/svg">
<rect width="95" height="33" rx="4" fill="#FE5358"/>
<path d="M13.457 13.161V15.813H16.577V17.022H13.457V19.791H16.967V21H11.975V11.952H16.967V13.161H13.457ZM20.1054 19.791H23.3554V21H18.3894V19.791L21.6524 15.046H18.3894V13.837H23.3554V15.046L20.1054 19.791ZM31.3595 13.837L26.9655 24.367H25.4315L26.8875 20.883L24.0665 13.837H25.7175L27.7325 19.297L29.8255 13.837H31.3595ZM37.1828 22.573H35.3498V10.496H37.1828V22.573ZM46.9442 21L44.9422 17.464H44.0842V21H42.2642V11.926H45.6702C46.3722 11.926 46.9702 12.0517 47.4642 12.303C47.9582 12.5457 48.3265 12.8793 48.5692 13.304C48.8205 13.72 48.9462 14.188 48.9462 14.708C48.9462 15.306 48.7729 15.8477 48.4262 16.333C48.0795 16.8097 47.5639 17.139 46.8792 17.321L49.0502 21H46.9442ZM44.0842 16.099H45.6052C46.0992 16.099 46.4675 15.982 46.7102 15.748C46.9529 15.5053 47.0742 15.1717 47.0742 14.747C47.0742 14.331 46.9529 14.0103 46.7102 13.785C46.4675 13.551 46.0992 13.434 45.6052 13.434H44.0842V16.099ZM57.2873 17.243C57.2873 17.503 57.27 17.737 57.2353 17.945H51.9703C52.0136 18.465 52.1956 18.8723 52.5163 19.167C52.837 19.4617 53.2313 19.609 53.6993 19.609C54.3753 19.609 54.8563 19.3187 55.1423 18.738H57.1053C56.8973 19.4313 56.4986 20.0033 55.9093 20.454C55.32 20.896 54.5963 21.117 53.7383 21.117C53.045 21.117 52.421 20.9653 51.8663 20.662C51.3203 20.35 50.8913 19.9123 50.5793 19.349C50.276 18.7857 50.1243 18.1357 50.1243 17.399C50.1243 16.6537 50.276 15.9993 50.5793 15.436C50.8826 14.8727 51.3073 14.4393 51.8533 14.136C52.3993 13.8327 53.0276 13.681 53.7383 13.681C54.423 13.681 55.034 13.8283 55.5713 14.123C56.1173 14.4177 56.5376 14.838 56.8323 15.384C57.1356 15.9213 57.2873 16.541 57.2873 17.243ZM55.4023 16.723C55.3936 16.255 55.2246 15.8823 54.8953 15.605C54.566 15.319 54.163 15.176 53.6863 15.176C53.2356 15.176 52.8543 15.3147 52.5423 15.592C52.239 15.8607 52.0526 16.2377 51.9833 16.723H55.4023ZM58.1477 17.399C58.1477 16.6537 58.2994 16.0037 58.6028 15.449C58.9061 14.8857 59.3264 14.4523 59.8638 14.149C60.4011 13.837 61.0164 13.681 61.7098 13.681C62.6024 13.681 63.3391 13.9063 63.9198 14.357C64.5091 14.799 64.9034 15.423 65.1028 16.229H63.1398C63.0358 15.917 62.8581 15.6743 62.6068 15.501C62.3641 15.319 62.0608 15.228 61.6968 15.228C61.1768 15.228 60.7651 15.4187 60.4618 15.8C60.1584 16.1727 60.0068 16.7057 60.0068 17.399C60.0068 18.0837 60.1584 18.6167 60.4618 18.998C60.7651 19.3707 61.1768 19.557 61.6968 19.557C62.4334 19.557 62.9144 19.2277 63.1398 18.569H65.1028C64.9034 19.349 64.5091 19.9687 63.9198 20.428C63.3304 20.8873 62.5938 21.117 61.7098 21.117C61.0164 21.117 60.4011 20.9653 59.8638 20.662C59.3264 20.35 58.9061 19.9167 58.6028 19.362C58.2994 18.7987 58.1477 18.1443 58.1477 17.399ZM69.6341 21.117C68.9407 21.117 68.3167 20.9653 67.7621 20.662C67.2074 20.35 66.7697 19.9123 66.4491 19.349C66.1371 18.7857 65.9811 18.1357 65.9811 17.399C65.9811 16.6623 66.1414 16.0123 66.4621 15.449C66.7914 14.8857 67.2377 14.4523 67.8011 14.149C68.3644 13.837 68.9927 13.681 69.6861 13.681C70.3794 13.681 71.0077 13.837 71.5711 14.149C72.1344 14.4523 72.5764 14.8857 72.8971 15.449C73.2264 16.0123 73.3911 16.6623 73.3911 17.399C73.3911 18.1357 73.2221 18.7857 72.8841 19.349C72.5547 19.9123 72.1041 20.35 71.5321 20.662C70.9687 20.9653 70.3361 21.117 69.6341 21.117ZM69.6341 19.531C69.9634 19.531 70.2711 19.453 70.5571 19.297C70.8517 19.1323 71.0857 18.8897 71.2591 18.569C71.4324 18.2483 71.5191 17.8583 71.5191 17.399C71.5191 16.7143 71.3371 16.19 70.9731 15.826C70.6177 15.4533 70.1801 15.267 69.6601 15.267C69.1401 15.267 68.7024 15.4533 68.3471 15.826C68.0004 16.19 67.8271 16.7143 67.8271 17.399C67.8271 18.0837 67.9961 18.6123 68.3341 18.985C68.6807 19.349 69.1141 19.531 69.6341 19.531ZM78.7171 13.694C79.5751 13.694 80.2684 13.967 80.7971 14.513C81.3258 15.0503 81.5901 15.8043 81.5901 16.775V21H79.7701V17.022C79.7701 16.45 79.6271 16.0123 79.3411 15.709C79.0551 15.397 78.6651 15.241 78.1711 15.241C77.6684 15.241 77.2698 15.397 76.9751 15.709C76.6891 16.0123 76.5461 16.45 76.5461 17.022V21H74.7261V13.798H76.5461V14.695C76.7888 14.383 77.0964 14.1403 77.4691 13.967C77.8504 13.785 78.2664 13.694 78.7171 13.694Z" fill="white"/>
</svg>
