<svg width="42" height="42" viewBox="0 0 42 42" fill="none" xmlns="http://www.w3.org/2000/svg">
<rect x="0.5" y="0.5" width="41" height="41" rx="3.5" fill="#FFFCE4" stroke="#DAC141"/>
<path d="M26.7158 25.068L27.462 25.815C27.5574 25.9109 27.6707 25.987 27.7956 26.0389C27.9204 26.0908 28.0543 26.1175 28.1895 26.1175C28.3248 26.1175 28.4586 26.0908 28.5835 26.0389C28.7083 25.987 28.8217 25.9109 28.917 25.815L31.2743 23.4547C31.3453 23.3843 31.4016 23.3006 31.44 23.2083C31.4785 23.116 31.4983 23.017 31.4983 22.917C31.4983 22.817 31.4785 22.718 31.44 22.6257C31.4016 22.5334 31.3453 22.4497 31.2743 22.3792L26.9018 18.0015C26.8699 17.9704 26.8446 17.9333 26.8273 17.8922C26.81 17.8512 26.8011 17.8071 26.8011 17.7626C26.8011 17.7181 26.81 17.674 26.8273 17.633C26.8446 17.592 26.8699 17.5548 26.9018 17.5237C26.9843 17.4412 27.0968 17.4112 27.201 17.4337C27.9098 17.5537 28.6635 17.3437 29.208 16.7992C29.4229 16.5838 29.5928 16.3279 29.7081 16.0463C29.8233 15.7647 29.8816 15.463 29.8795 15.1588C29.8774 14.8545 29.815 14.5537 29.6959 14.2738C29.5768 13.9938 29.4033 13.7402 29.1855 13.5277L28.5435 12.8775L28.2525 12.975C27.8813 12.8633 27.4878 12.8478 27.1089 12.9299C26.73 13.012 26.3782 13.1891 26.0865 13.4444C25.7948 13.6998 25.5728 14.0252 25.4414 14.3899C25.3099 14.7546 25.2733 15.1467 25.335 15.5295C25.35 15.642 25.32 15.7462 25.2383 15.828L25.2233 15.843C25.1923 15.8748 25.1552 15.9001 25.1142 15.9174C25.0733 15.9347 25.0292 15.9436 24.9848 15.9436C24.9403 15.9436 24.8963 15.9347 24.8554 15.9174C24.8144 15.9001 24.7773 15.8748 24.7463 15.843L20.3738 11.4742C20.3035 11.4032 20.2198 11.3468 20.1276 11.3083C20.0353 11.2698 19.9364 11.25 19.8364 11.25C19.7365 11.25 19.6375 11.2698 19.5453 11.3083C19.453 11.3468 19.3693 11.4032 19.299 11.4742L16.9635 13.8112C16.9035 13.8712 16.8593 13.9387 16.815 14.0055L16.6575 13.848L16.1055 14.4015L16.9635 15.2602L16.9785 15.2752C17.1878 15.4845 17.4713 15.5962 17.7623 15.5812C18.1094 15.5652 18.4556 15.6281 18.7748 15.7653C19.094 15.9025 19.3779 16.1104 19.605 16.3732C19.9644 16.791 20.162 17.3237 20.162 17.8747C20.162 18.4258 19.9644 18.9585 19.605 19.3762C19.3992 19.615 19.1463 19.8088 18.8622 19.9456C18.5782 20.0823 18.269 20.1591 17.9539 20.171C17.6389 20.183 17.3247 20.1299 17.0311 20.0151C16.7375 19.9003 16.4707 19.7262 16.2473 19.5037C16.0163 19.2749 15.8374 18.9989 15.7228 18.6946C15.6083 18.3903 15.5608 18.0649 15.5835 17.7405C15.5985 17.4487 15.4935 17.1652 15.285 16.956C15.2794 16.9447 15.2718 16.9345 15.2625 16.926L14.5313 16.194L14.211 16.5225L14.3528 16.665C14.1539 16.7046 13.9717 16.8034 13.83 16.9485L11.472 19.3087C11.4011 19.3792 11.3447 19.4629 11.3063 19.5552C11.2678 19.6475 11.248 19.7465 11.248 19.8465C11.248 19.9465 11.2678 20.0455 11.3063 20.1378C11.3447 20.2301 11.4011 20.3138 11.472 20.3842L15.852 24.7695C15.987 24.9037 15.987 25.113 15.852 25.2472C15.8139 25.2862 15.7665 25.3149 15.7144 25.3306C15.6622 25.3463 15.6068 25.3486 15.5535 25.3372C15.1672 25.2708 14.7703 25.3046 14.4006 25.4352C14.031 25.5658 13.7011 25.789 13.4423 26.0835C13.0802 26.501 12.8802 27.0347 12.8789 27.5874C12.8775 28.14 13.0748 28.6747 13.4348 29.094C13.6407 29.3331 13.8938 29.527 14.1782 29.6636C14.4626 29.8002 14.7721 29.8765 15.0874 29.8878C15.4027 29.899 15.717 29.845 16.0104 29.729C16.3038 29.6131 16.5701 29.4377 16.7925 29.214C17.0481 28.958 17.2395 28.6451 17.3509 28.301C17.4624 27.9569 17.4908 27.5912 17.4338 27.234C17.4251 27.1801 17.4294 27.1248 17.4463 27.0729C17.4633 27.021 17.4924 26.9739 17.5313 26.9355L17.5463 26.9205C17.5773 26.8887 17.6144 26.8633 17.6554 26.8461C17.6963 26.8288 17.7403 26.8199 17.7848 26.8199C17.8292 26.8199 17.8733 26.8288 17.9142 26.8461C17.9552 26.8633 17.9923 26.8887 18.0233 26.9205L22.3733 31.275C22.4436 31.346 22.5273 31.4024 22.6195 31.4409C22.7118 31.4794 22.8107 31.4992 22.9107 31.4992C23.0106 31.4992 23.1096 31.4794 23.2018 31.4409C23.294 31.4024 23.3777 31.346 23.448 31.275L25.7835 28.9372C25.8793 28.8417 25.9552 28.7282 26.0071 28.6032C26.0589 28.4782 26.0856 28.3443 26.0856 28.209C26.0856 28.0737 26.0589 27.9398 26.0071 27.8148C25.9552 27.6898 25.8793 27.5763 25.7835 27.4807L25.7685 27.4657L25.104 26.8005L24.813 27.0922L24.8955 27.1747C24.5647 27.1759 24.2375 27.1058 23.9362 26.9691C23.6349 26.8324 23.3666 26.6324 23.1495 26.3827C22.7902 25.965 22.5926 25.4323 22.5926 24.8812C22.5926 24.3302 22.7902 23.7975 23.1495 23.3797C23.3554 23.141 23.6083 22.9472 23.8923 22.8104C24.1764 22.6737 24.4856 22.5969 24.8007 22.585C25.1157 22.573 25.4298 22.6261 25.7235 22.7409C26.0171 22.8557 26.2839 23.0298 26.5073 23.2522C26.895 23.6415 27.1185 24.1417 27.1635 24.6495L27.1485 24.6345L26.7158 25.068Z" fill="#D3D3D3"/>
<path d="M25.327 12.6821C25.0327 12.9372 24.8085 13.2632 24.6754 13.6293C24.5423 13.9953 24.5048 14.3892 24.5665 14.7738C24.5815 14.8863 24.5515 14.9906 24.469 15.0723L24.454 15.0873C24.423 15.1192 24.3859 15.1445 24.3449 15.1617C24.304 15.179 24.2599 15.1879 24.2155 15.1879C24.171 15.1879 24.127 15.179 24.0861 15.1617C24.0451 15.1445 24.008 15.1192 23.977 15.0873L19.6142 10.7246C19.544 10.6534 19.4603 10.5969 19.3681 10.5584C19.2758 10.5198 19.1768 10.5 19.0769 10.5C18.9769 10.5 18.8779 10.5198 18.7857 10.5584C18.6934 10.5969 18.6097 10.6534 18.5395 10.7246L16.2055 13.0623C16.1097 13.1579 16.0338 13.2715 15.9819 13.3966C15.9301 13.5216 15.9034 13.6556 15.9034 13.7909C15.9034 13.9263 15.9301 14.0603 15.9819 14.1853C16.0338 14.3103 16.1097 14.4239 16.2055 14.5196L16.228 14.5346C16.429 14.7371 16.7125 14.8488 17.0035 14.8338C17.3505 14.8173 17.6967 14.88 18.0159 15.0172C18.335 15.1545 18.6188 15.3626 18.8455 15.6258C19.2046 16.0438 19.402 16.5766 19.402 17.1277C19.402 17.6787 19.2046 18.2116 18.8455 18.6296C18.6398 18.8683 18.387 19.0621 18.1031 19.1988C17.8191 19.3355 17.5101 19.4123 17.1951 19.4242C16.8802 19.4362 16.5662 19.3831 16.2727 19.2683C15.9792 19.1536 15.7125 18.9795 15.4892 18.7571C15.2615 18.5242 15.0848 18.2464 14.9705 17.9413C14.8562 17.6363 14.8068 17.3108 14.8255 16.9856C14.848 16.6938 14.7355 16.4028 14.527 16.2011C14.4317 16.1051 14.3184 16.0289 14.1935 15.977C14.0686 15.925 13.9347 15.8982 13.7995 15.8982C13.6642 15.8982 13.5303 15.925 13.4055 15.977C13.2806 16.0289 13.1673 16.1051 13.072 16.2011L10.7237 18.5546C10.6528 18.6251 10.5966 18.7089 10.5582 18.8013C10.5198 18.8936 10.5 18.9927 10.5 19.0927C10.5 19.1927 10.5198 19.2917 10.5582 19.3841C10.5966 19.4764 10.6528 19.5603 10.7237 19.6308L15.1022 24.0168C15.1341 24.048 15.1595 24.0852 15.1768 24.1263C15.1941 24.1674 15.203 24.2115 15.203 24.2561C15.203 24.3006 15.1941 24.3448 15.1768 24.3859C15.1595 24.4269 15.1341 24.4642 15.1022 24.4953C15.0642 24.5343 15.0168 24.563 14.9646 24.5788C14.9124 24.5945 14.857 24.5968 14.8037 24.5853C14.4174 24.519 14.0206 24.5528 13.6511 24.6836C13.2816 24.8144 12.9518 25.0377 12.6932 25.3323C12.3314 25.7501 12.1316 26.2839 12.1302 26.8365C12.1288 27.3892 12.326 27.924 12.6857 28.3436C12.8915 28.5826 13.1445 28.7765 13.4287 28.913C13.713 29.0496 14.0225 29.126 14.3376 29.1372C14.6528 29.1485 14.9669 29.0945 15.2602 28.9785C15.5535 28.8626 15.8197 28.6873 16.042 28.4636C16.2974 28.2075 16.4887 27.8946 16.6001 27.5505C16.7116 27.2064 16.7401 26.8408 16.6832 26.4836C16.6743 26.4294 16.6786 26.3739 16.6955 26.3217C16.7125 26.2695 16.7417 26.2221 16.7807 26.1836L16.7957 26.1686C16.8268 26.1367 16.8639 26.1114 16.9048 26.0941C16.9458 26.0769 16.9898 26.068 17.0342 26.068C17.0787 26.068 17.1227 26.0769 17.1637 26.0941C17.2046 26.1114 17.2417 26.1367 17.2727 26.1686L21.6212 30.5261C21.6915 30.5971 21.7751 30.6535 21.8673 30.6919C21.9595 30.7304 22.0584 30.7502 22.1582 30.7502C22.2581 30.7502 22.357 30.7304 22.4492 30.6919C22.5414 30.6535 22.625 30.5971 22.6952 30.5261L25.0292 28.1861C25.1249 28.0904 25.2008 27.9769 25.2525 27.8519C25.3043 27.727 25.331 27.5931 25.331 27.4578C25.331 27.3226 25.3043 27.1886 25.2525 27.0637C25.2008 26.9387 25.1249 26.8252 25.0292 26.7296L25.0142 26.7146C24.913 26.6134 24.7917 26.5345 24.6581 26.4829C24.5246 26.4314 24.3817 26.4084 24.2387 26.4153C23.8918 26.4316 23.5456 26.3688 23.2265 26.2316C22.9074 26.0944 22.6236 25.8864 22.3967 25.6233C22.0376 25.2053 21.8402 24.6725 21.8402 24.1214C21.8402 23.5704 22.0376 23.0376 22.3967 22.6196C22.6025 22.3808 22.8552 22.187 23.1391 22.0503C23.4231 21.9136 23.7322 21.8368 24.0471 21.8249C24.362 21.8129 24.676 21.866 24.9695 21.9808C25.263 22.0956 25.5297 22.2696 25.753 22.4921C26.2375 22.9781 26.4617 23.6208 26.4167 24.2561C26.4017 24.5478 26.5067 24.8313 26.7152 25.0406C26.8105 25.1365 26.9239 25.2127 27.0487 25.2647C27.1736 25.3166 27.3075 25.3434 27.4427 25.3434C27.578 25.3434 27.7119 25.3166 27.8367 25.2647C27.9616 25.2127 28.0749 25.1365 28.1702 25.0406L30.5267 22.6796C30.5976 22.609 30.6539 22.5252 30.6923 22.4328C30.7307 22.3405 30.7505 22.2414 30.7505 22.1414C30.7505 22.0414 30.7307 21.9424 30.6923 21.85C30.6539 21.7577 30.5976 21.6738 30.5267 21.6033L26.1557 17.2248C26.1239 17.1937 26.0985 17.1564 26.0812 17.1154C26.0639 17.0743 26.055 17.0301 26.055 16.9856C26.055 16.941 26.0639 16.8969 26.0812 16.8558C26.0985 16.8147 26.1239 16.7775 26.1557 16.7463C26.2382 16.6638 26.35 16.6338 26.4542 16.6563C26.815 16.7188 27.1855 16.6938 27.5347 16.5834C27.8838 16.473 28.2013 16.2804 28.4605 16.0218C28.6835 15.7982 28.858 15.531 28.9732 15.2369C29.0883 14.9428 29.1415 14.6281 29.1295 14.3125C29.1176 13.9969 29.0407 13.6872 28.9036 13.4027C28.7666 13.1181 28.5723 12.8649 28.333 12.6588C27.4682 11.9418 26.1782 11.9418 25.3277 12.6813L25.327 12.6821Z" fill="#EDDA32"/>
</svg>
